<svg width="305" height="299" viewBox="0 0 305 299" fill="none" xmlns="http://www.w3.org/2000/svg">
<path d="M164.3 182.942C163.882 177.951 163.727 172.942 163.836 167.934C163.836 167.518 163.228 167.406 163.18 167.934C162.657 172.953 162.711 178.016 163.34 183.022C163.351 183.15 163.411 183.268 163.509 183.35C163.606 183.433 163.733 183.473 163.86 183.462C163.987 183.452 164.105 183.391 164.188 183.293C164.27 183.196 164.311 183.07 164.3 182.942ZM157.052 181.07C157.081 181.135 157.128 181.19 157.188 181.229C157.247 181.268 157.317 181.288 157.388 181.288C157.459 181.288 157.529 181.268 157.588 181.229C157.648 181.19 157.695 181.135 157.724 181.07C157.5 176.03 157.292 170.974 157.068 165.918C157.068 165.833 157.034 165.752 156.974 165.692C156.914 165.632 156.833 165.598 156.748 165.598C156.663 165.598 156.582 165.632 156.522 165.692C156.462 165.752 156.428 165.833 156.428 165.918C156.215 169.736 156.257 173.563 156.556 177.374C156.567 178.622 156.733 179.864 157.052 181.07ZM198.988 181.71C199.145 184.182 198.869 186.662 198.172 189.038C198.172 189.406 199.244 191.438 199.916 185.598C200.337 181.654 199.515 177.676 197.564 174.222C197.356 173.838 196.812 174.222 196.988 174.558C198.095 176.797 198.774 179.222 198.988 181.71ZM179.596 66.0464C179.585 67.2504 179.992 68.421 180.748 69.3584C181.708 70.2224 183.196 66.8624 187.66 66.3344V62.0144C184.545 62.2423 181.647 63.6915 179.596 66.0464ZM221.66 181.614C221.66 178.318 221.372 175.038 221.308 171.742C221.308 171.294 220.62 171.39 220.62 171.838C220.62 175.246 220.62 178.686 220.764 182.11C220.828 184.366 221.708 183.534 221.66 181.614ZM190.652 61.9344L190.748 66.2544C196.268 66.4464 197.868 70.6064 198.46 69.3104C198.716 68.7184 199.756 65.7584 199.196 65.2464C196.847 63.1375 193.809 61.9596 190.652 61.9344ZM75.82 35.9664C74.988 36.4144 75.82 38.3824 76.476 37.9504C77.132 37.5184 76.732 35.4384 75.82 35.9664ZM74.764 31.1504C73.644 31.2624 73.612 32.4144 74.764 32.5584C75.5986 32.6231 76.4078 32.8747 77.132 33.2944C77.564 33.5824 78.028 33.0064 77.772 32.6064C77.4424 32.1212 76.9909 31.7312 76.463 31.4757C75.935 31.2201 75.3491 31.1079 74.764 31.1504ZM71.9 36.7824C72.3282 37.9055 72.6653 39.0612 72.908 40.2384C73.18 41.6144 73.164 41.9824 73.1 42.0624C72.8416 42.0707 72.5846 42.1028 72.332 42.1584C71.868 42.3184 71.868 42.9104 72.588 43.2464C72.7833 43.3451 73.0038 43.3826 73.2207 43.354C73.4377 43.3255 73.6409 43.2322 73.804 43.0864C74.636 42.2864 74.284 40.0304 72.78 36.3824C72.727 36.2657 72.6298 36.1748 72.5097 36.1298C72.3897 36.0848 72.2567 36.0893 72.14 36.1424C72.0233 36.1954 71.9325 36.2926 71.8875 36.4127C71.8425 36.5327 71.847 36.6657 71.9 36.7824Z" fill="#27272A"/>
<path d="M303.804 229.518H281.1C283.196 218.318 270.748 210.43 263.004 214.558C262.209 210.677 260.024 207.221 256.859 204.837C253.695 202.454 249.77 201.308 245.82 201.614C245.399 198.865 244.359 196.247 242.779 193.958C241.199 191.669 239.121 189.768 236.7 188.398C235.948 179.438 236.284 170.318 236.3 161.47C237.66 161.566 240.924 161.87 240.396 160.574C238.796 156.606 236.06 149.982 233.996 146.174C234.828 146.174 235.772 146.174 235.772 145.326C236.028 129.966 236.524 97.7423 236.524 97.7423C236.78 78.6703 237.42 56.7503 224.028 41.0543C223.612 40.5583 223.036 40.3823 222.668 40.8943C217.22 48.6075 213.638 57.4806 212.204 66.8143C211.66 57.6943 210.94 47.3903 209.532 37.1983C207.132 19.9023 201.34 8.28633 191.932 1.39033C191.036 0.73433 189.724 -0.32167 189.132 0.0943305C174.444 10.4943 170.124 28.6383 169.1 42.0303C168.732 47.7263 168.62 53.5023 168.764 59.2303C166.796 51.8863 160.044 37.5503 157.564 41.0063C146.012 57.5503 146.988 78.9263 147.964 97.7903C149.564 133.726 150.044 142.99 150.252 145.406C150.252 146.19 150.252 146.718 152.46 146.478C147.804 158.814 146.844 160.878 147.26 161.23C147.676 161.582 149.324 161.47 150.124 161.422C150.012 166.814 151.292 193.022 151.116 194.414C149.954 195.829 149.02 197.416 148.348 199.118C145.62 199.86 143.089 201.192 140.933 203.02C138.776 204.847 137.047 207.126 135.868 209.694C133.739 209.486 131.594 209.839 129.644 210.718C127.724 189.422 123.788 157.23 118.972 135.79C127.212 136.862 131.148 133.166 133.052 129.966C137.852 121.598 134.652 107.694 128.7 99.9983C123.662 89.2807 116.274 79.8361 107.084 72.3663C108.06 70.5103 105.484 62.0783 98.9399 58.6063C96.1399 57.1183 92.4119 57.0063 90.6999 55.4063C87.0359 51.8223 89.4999 42.2863 81.8679 39.7903C81.3743 35.8468 80.5555 31.9509 79.4199 28.1423C89.0199 24.0143 88.5239 12.8463 82.8599 9.67833C77.5799 6.73433 74.6679 10.9103 71.1959 12.0783C66.3959 13.6783 62.3159 10.2223 56.0119 10.2223C44.1239 10.2223 41.3079 22.1903 40.6839 22.7823C40.0599 23.3743 39.8199 26.7503 34.5239 28.8303C28.8919 31.0223 21.7239 31.1503 18.6679 37.7743C16.0759 43.5663 21.0519 50.6383 17.6279 55.9983C15.6279 59.1983 8.44394 59.3903 3.22795 67.7583C-2.35605 76.6703 -0.484054 88.7663 7.21195 93.7903C0.587946 108.67 0.891946 124.494 7.99594 135.15C14.4919 144.862 25.0839 148.51 36.5879 148.206C36.0119 175.31 36.2519 202.334 34.8119 229.614C29.6119 229.614 24.3959 229.726 19.2919 229.822C19.1477 229.822 19.0093 229.88 18.9073 229.982C18.8053 230.084 18.7479 230.222 18.7479 230.366C18.7479 230.511 18.8053 230.649 18.9073 230.751C19.0093 230.853 19.1477 230.91 19.2919 230.91C23.8519 231.006 29.2439 231.102 34.7159 231.102C33.8359 246.99 32.6519 263.102 31.1959 278.894C31.0519 280.494 34.7959 280.398 36.3799 280.494C35.9424 282.717 35.7759 284.984 35.8839 287.246C34.6679 288.318 32.8919 295.646 32.9879 297.006C32.9879 297.294 33.1159 297.47 33.3079 297.502C35.0679 297.79 61.6599 299.102 62.8919 297.646C62.9227 297.59 62.9389 297.527 62.9389 297.462C62.9389 297.398 62.9227 297.335 62.8919 297.278C61.1159 292.478 54.8919 288.43 49.8039 287.118L51.1799 280.99C52.2359 280.99 54.3799 281.15 54.6839 280.59C61.8359 264.462 68.3479 247.806 74.0279 231.118H97.2919C101.724 245.344 105.636 259.727 109.02 274.238C110.38 280.094 109.436 279.774 113.212 279.95C113.194 282.232 113.468 284.506 114.028 286.718C112.801 289.606 112.06 292.677 111.836 295.806C111.805 295.86 111.789 295.921 111.789 295.982C111.789 296.044 111.805 296.105 111.836 296.158C112.844 297.438 141.564 298.51 143.532 297.342C145.132 296.318 136.364 287.822 128.588 286.254C128.7 284.211 128.652 282.162 128.444 280.126C129.804 280.126 132.94 280.494 132.94 279.15C132.94 264.046 132.428 247.87 131.34 231.15H303.852C304.068 231.144 304.273 231.052 304.422 230.894C304.57 230.737 304.65 230.527 304.644 230.31C304.638 230.094 304.546 229.889 304.388 229.74C304.23 229.592 304.02 229.512 303.804 229.518ZM87.0839 200.974C91.0679 211.934 93.1959 218.75 96.7959 229.662H74.5079C78.3959 218.158 83.7719 200.862 87.3079 186.318C88.5079 181.518 90.9239 183.55 90.0439 187.454C89.0199 192.27 87.0359 200.862 87.0839 200.974ZM127.452 286.414C124.716 287.662 117.852 287.582 115.18 286.814C115.004 284.526 114.54 282.238 114.508 279.95L127.084 280.094C127.196 282.206 127.324 284.302 127.452 286.414ZM37.8519 148.19C51.2919 147.518 67.2759 141.374 80.6519 131.726C80.9399 131.518 81.1959 131.47 81.2759 131.198C81.3559 130.926 81.2759 130.702 80.7959 130.014C84.5533 128.255 88.4987 126.929 92.5559 126.062C94.1559 125.774 98.8439 124.878 99.6919 122.334L103.18 122.238C106.54 129.198 111.884 134.03 117.868 135.534L121.068 154.558C94.6359 163.662 70.5079 165.598 37.9479 161.166C38.0599 156.862 38.0759 152.494 37.8999 148.19H37.8519ZM79.7879 50.6703C77.5479 56.4783 72.8759 56.7183 73.6279 58.0943V58.5903C73.9319 61.1343 74.5239 66.3663 70.4279 70.0623C63.5159 67.3103 59.2279 64.1423 56.0279 59.5343C56.6999 58.3663 56.0279 53.2623 56.0279 53.2143C55.0359 47.9983 50.4919 46.9423 51.5159 42.2223C51.6599 41.5343 51.8679 41.1343 52.1399 41.0063C53.0359 40.6063 55.3399 43.6943 55.8199 40.1103C56.5719 34.9903 58.0119 31.0383 63.0839 29.5983C67.7879 28.2703 72.3319 30.5423 78.4119 28.4463C79.7879 34.1423 82.1559 44.4463 79.7879 50.6703ZM70.6679 71.4703C73.4359 70.7823 75.8039 63.9823 75.2279 60.1743C79.5461 60.7843 83.7987 61.7912 87.9319 63.1823C102.972 68.5423 116.028 79.9983 124.844 95.5503C118.828 89.7903 110.956 86.5423 103.836 86.9903C101.566 83.2702 98.9575 79.7673 96.0439 76.5263C96.0004 76.4783 95.9473 76.4399 95.8881 76.4136C95.8289 76.3873 95.7647 76.3737 95.6999 76.3737C95.6351 76.3737 95.571 76.3873 95.5118 76.4136C95.4525 76.4399 95.3994 76.4783 95.3559 76.5263C95.31 76.5711 95.2734 76.6246 95.2485 76.6836C95.2235 76.7427 95.2107 76.8062 95.2107 76.8703C95.2107 76.9345 95.2235 76.998 95.2485 77.057C95.2734 77.1161 95.31 77.1696 95.3559 77.2143C97.9122 80.3931 100.269 83.7276 102.412 87.1983C100.291 87.5184 98.2471 88.2233 96.3799 89.2783C96.0775 89.308 95.7779 89.3615 95.4839 89.4383C94.6054 89.6369 93.7115 89.76 92.8119 89.8063C89.0679 89.8063 88.9239 88.2063 87.5799 88.3823C84.9079 88.6543 85.6919 93.9343 91.8359 95.0543C90.7319 98.1423 90.2359 104.942 92.2999 107.854C89.8359 107.854 88.2519 107.342 88.1559 109.854C88.1238 110.307 88.1238 110.762 88.1559 111.214C87.3626 110.704 86.4647 110.378 85.5285 110.262C84.5924 110.146 83.642 110.242 82.7479 110.542C81.0679 111.182 77.8679 114.526 76.2519 115.918C76.2519 115.246 76.2519 114.222 75.6599 114.158C65.4999 113.31 50.0599 113.07 40.8119 113.326C40.3049 106.799 40.3906 100.239 41.0679 93.7263C41.0955 93.5927 41.0689 93.4535 40.9939 93.3395C40.9188 93.2255 40.8016 93.1459 40.6679 93.1183C40.5343 93.0908 40.3951 93.1174 40.2811 93.1924C40.1671 93.2674 40.0875 93.3847 40.0599 93.5183C39.5479 96.3983 38.5559 108.142 39.5959 113.374L26.4919 114.238C26.3952 114.247 26.3035 114.286 26.229 114.348C26.1544 114.411 26.1006 114.494 26.0746 114.588C26.0486 114.681 26.0516 114.781 26.0833 114.873C26.1149 114.965 26.1738 115.045 26.2519 115.102C26.297 115.143 26.3507 115.172 26.4089 115.189C26.4671 115.206 26.5283 115.209 26.5879 115.198C42.7419 114.209 58.9444 114.316 75.0839 115.518C75.1583 120.924 76.7856 126.195 79.7719 130.702C58.4279 146.078 23.3079 156.126 8.97194 134.334C-1.34805 118.766 3.77195 91.5663 22.9079 74.9583C32.0482 67.1216 43.1689 61.9515 55.0519 60.0143C57.9479 65.5343 68.5719 71.9503 70.6519 71.4383L70.6679 71.4703ZM94.3799 90.8623C93.5647 91.7232 92.8801 92.6989 92.3479 93.7583C89.3559 93.3103 87.6599 91.7423 87.3719 90.4463C87.1479 89.5503 87.6759 89.1823 88.7799 89.9343C90.5167 90.7816 92.4627 91.1041 94.3799 90.8623ZM102.156 99.6783C102.075 99.7716 102.027 99.889 102.019 100.012C102.012 100.136 102.046 100.258 102.115 100.36C102.184 100.463 102.286 100.539 102.403 100.578C102.52 100.617 102.647 100.615 102.764 100.574C104.06 100.062 104.668 100.174 104.764 100.414C104.86 100.654 104.348 101.838 103.308 102.35C102.636 102.686 101.34 102.99 100.348 101.182C99.5319 99.7103 100.924 98.0943 100.348 97.7583C99.7719 97.4223 98.1399 99.9023 99.5319 102.078C99.2444 102.289 98.9004 102.409 98.5441 102.424C98.1879 102.438 97.8354 102.346 97.5319 102.158C96.8279 101.614 96.3479 100.094 97.1639 97.3583C97.4679 96.3023 95.6759 96.0303 95.4519 100.558C95.3559 101.182 94.6679 105.022 94.4599 106.318C94.2519 107.614 93.9639 107.71 93.9319 107.726C93.8999 107.742 93.7559 107.726 93.6279 107.55C92.4919 106.27 91.1319 99.7583 93.3079 94.7503C93.9844 93.0614 95.1401 91.6072 96.6326 90.5667C98.1251 89.5262 99.8893 88.9449 101.708 88.8943C102.778 88.8739 103.836 89.1121 104.794 89.5888C105.752 90.0655 106.58 90.7666 107.208 91.6323C107.837 92.498 108.247 93.5028 108.403 94.561C108.56 95.6193 108.459 96.6997 108.108 97.7103C107.936 98.2482 107.643 98.7396 107.252 99.1472C106.861 99.5547 106.382 99.8678 105.852 100.062C105.669 99.75 105.416 99.4851 105.111 99.289C104.807 99.0929 104.461 98.9713 104.101 98.9339C103.741 98.8965 103.378 98.9444 103.04 99.0738C102.702 99.2031 102.399 99.4102 102.156 99.6783ZM90.3799 113.23C90.1839 112.679 89.8058 112.21 89.3079 111.902L89.4999 109.31H97.0839C97.0839 110.174 97.3239 112.718 97.3239 112.718C95.0002 112.729 92.68 112.9 90.3799 113.23ZM95.3399 107.87C95.7625 106.122 96.0671 104.347 96.2519 102.558C96.772 103.125 97.4786 103.485 98.2425 103.573C99.0065 103.661 99.7766 103.472 100.412 103.038L100.668 103.214C99.9835 106.338 99.8966 109.563 100.412 112.718H98.8119C98.8555 111.204 98.6885 109.691 98.3159 108.222C97.8519 107.806 96.0439 107.87 95.3399 107.87ZM83.0199 111.742C84.0923 111.474 85.2165 111.494 86.2786 111.801C87.3406 112.107 88.3029 112.688 89.0679 113.486C89.3559 113.966 89.3079 114.126 89.2919 114.174C89.2759 114.222 88.3319 114.35 87.6919 114.318C86.7464 114.166 85.7768 114.299 84.9079 114.702C83.5889 115.761 82.7245 117.283 82.4919 118.958C82.2519 123.038 94.0439 122.526 98.0759 122.398C95.0999 125.438 86.2359 124.75 80.2359 128.942C78.1392 125.326 76.8051 121.318 76.3159 117.166C77.3719 116.686 81.3239 112.478 83.0199 111.742ZM133.052 126.958C129.596 137.054 118.764 134.462 118.316 134.35C110.764 132.446 106.396 125.406 104.748 122.142C106.54 121.726 106.028 119.966 105.852 118.27L119.804 117.95C120.924 120.078 123.58 119.374 123.452 117.246C123.468 116.783 123.322 116.329 123.039 115.963C122.755 115.596 122.353 115.34 121.9 115.239C121.448 115.139 120.975 115.199 120.563 115.411C120.151 115.623 119.826 115.972 119.644 116.398C117.644 116.222 107.804 116.494 105.74 116.718C105.5 112.43 105.74 112.734 101.788 112.75C101.42 109.743 101.42 106.702 101.788 103.694C102.626 103.851 103.493 103.707 104.236 103.289C104.979 102.871 105.551 102.204 105.852 101.406C108.508 101.07 111.18 96.4623 108.828 91.5343C108.388 90.7071 107.781 89.98 107.045 89.3989C106.31 88.8179 105.463 88.3955 104.556 88.1583C116.764 87.8383 127.82 97.6783 132.236 109.39C132.46 109.39 132.604 109.23 132.236 109.39C134.509 114.981 134.797 121.181 133.052 126.958ZM49.8519 280.958C49.3432 282.974 48.969 285.021 48.7319 287.086C44.8402 287.489 40.9196 287.532 37.0199 287.214C37.2759 284.99 37.5159 282.782 37.7559 280.558L49.8519 280.958ZM263.132 215.502C266.62 212.638 282.044 216.286 279.74 229.566H131.244L129.852 211.838C137.964 209.022 143.916 213.31 146.012 218.526C146.38 219.502 148.444 218.67 145.228 214.654C143.184 212.129 140.298 210.424 137.1 209.854C144.844 194.942 166.764 197.326 171.02 213.358C171.244 214.206 172.508 213.79 172.284 212.942C171 208.214 167.981 204.144 163.829 201.543C159.678 198.943 154.698 198.002 149.884 198.91C151.24 196.183 153.248 193.832 155.729 192.065C158.21 190.297 161.088 189.169 164.109 188.778C167.13 188.387 170.201 188.747 173.05 189.825C175.899 190.903 178.438 192.666 180.444 194.958C181.916 196.558 186.844 205.934 188.444 207.038C187.129 209.294 186.305 211.802 186.028 214.398C184.05 215.123 182.251 216.266 180.755 217.748C179.258 219.231 178.099 221.019 177.356 222.99C177.303 223.111 177.3 223.248 177.348 223.371C177.396 223.494 177.491 223.593 177.612 223.646C177.733 223.699 177.87 223.702 177.993 223.654C178.116 223.606 178.215 223.511 178.268 223.39C179.236 221.148 180.772 219.197 182.724 217.729C184.676 216.261 186.977 215.328 189.4 215.021C191.823 214.714 194.285 215.044 196.541 215.979C198.798 216.913 200.771 218.42 202.268 220.35C202.374 220.499 202.535 220.599 202.715 220.629C202.895 220.659 203.079 220.616 203.228 220.51C203.376 220.404 203.477 220.244 203.507 220.063C203.537 219.883 203.494 219.699 203.388 219.55C201.545 217.11 199.012 215.278 196.117 214.291C193.222 213.304 190.098 213.208 187.148 214.014C187.618 211.467 188.599 209.041 190.032 206.882C191.464 204.723 193.319 202.877 195.484 201.454C198.102 199.776 201.103 198.791 204.206 198.59C207.309 198.39 210.412 198.981 213.224 200.309C216.036 201.636 218.464 203.656 220.281 206.18C222.098 208.703 223.244 211.647 223.612 214.734C223.647 214.894 223.738 215.035 223.869 215.132C224 215.229 224.162 215.275 224.325 215.261C224.488 215.248 224.64 215.175 224.753 215.058C224.866 214.94 224.932 214.785 224.94 214.622C224.516 211.1 223.153 207.757 220.994 204.942C218.835 202.128 215.96 199.945 212.668 198.622C213.736 195.805 215.508 193.309 217.817 191.373C220.125 189.438 222.892 188.127 225.852 187.566C235.196 186.126 243.212 193.31 244.396 201.774C241.948 202.18 239.624 203.134 237.598 204.567C235.572 206 233.898 207.873 232.7 210.046C232.412 210.59 233.292 211.07 233.596 210.542C235.343 207.59 238.012 205.292 241.191 204.003C244.371 202.714 247.886 202.504 251.196 203.406C254.381 204.421 257.152 206.438 259.096 209.158C261.04 211.877 262.051 215.152 261.98 218.494C261.98 218.926 262.556 219.47 262.988 219.166C263.164 219.054 263.676 218.686 263.148 215.502H263.132ZM170.572 42.8943C181.548 40.9743 192.972 40.6383 208.732 41.8063C211.26 63.5503 211.628 84.0303 212.028 105.902C208.956 99.1183 205.836 89.2143 205.884 82.3823C205.869 74.4347 203.937 66.608 200.252 59.5663C195.868 51.1983 189.932 45.2783 183.468 52.2223C174.508 61.8223 175.148 73.4063 175.324 86.2543C174.73 91.9678 173.501 97.5973 171.66 103.038C171.1 76.3663 169.548 56.7183 170.572 42.8943ZM234.7 144.878C233.523 144.694 232.325 144.694 231.148 144.878L231.308 132.27C231.355 131.985 231.336 131.692 231.253 131.415C231.17 131.138 231.024 130.883 230.828 130.67C227.164 127.598 216.908 117.71 213.516 108.894C213.516 99.6143 213.372 90.2063 213.004 80.9263C221.116 80.6863 228.7 80.7823 235.084 80.9263C235.724 96.5263 234.524 123.79 234.7 144.878ZM170.796 187.678C167.557 186.958 164.188 187.068 161.002 187.996C157.817 188.925 154.917 190.643 152.572 192.99C152.46 189.55 151.756 168.174 151.516 161.454L169.692 161.102C169.644 164.35 170.492 184.542 170.796 187.678ZM206.22 93.4223C209.148 105.534 214.396 118.478 229.916 131.646C229.916 135.966 229.42 146.894 229.708 151.054C229.388 151.054 205.836 151.214 204.108 151.358C205.898 132.101 206.603 112.759 206.22 93.4223ZM175.676 93.6623C176.748 113.262 178.716 132.766 181.548 151.71C177.628 151.614 159.244 151.054 156.572 151.182C156.572 148.558 155.916 133.454 155.852 131.982C166.043 121.406 172.931 108.09 175.676 93.6623ZM170.876 161.07C172.028 161.07 174.572 161.342 174.428 160.206C173.709 157.705 172.727 155.286 171.5 152.99L181.708 153.134C181.948 154.606 182.172 156.078 182.396 157.55C180.892 159.15 177.852 168.43 177.436 170.11C177.404 170.222 177.399 170.34 177.421 170.454C177.443 170.568 177.492 170.675 177.564 170.766C177.948 171.246 178.956 171.31 180.028 171.31C175.372 178.686 177.9 187.806 179.676 192.302C177.462 190.361 174.868 188.901 172.06 188.014C172.428 185.086 171.084 163.758 170.892 161.07H170.876ZM179.068 178.414C179.407 175.945 180.21 173.561 181.436 171.39C188.817 171.686 196.207 171.606 203.58 171.15C204.46 174.622 212.476 183.726 202.524 197.406C199.823 197.772 197.229 198.702 194.911 200.136C192.593 201.569 190.602 203.474 189.068 205.726C183.404 197.166 177.628 188.718 179.084 178.414H179.068ZM204.812 110.862C204.572 126.99 203.58 141.118 202.396 156.574L183.564 157.07C180.012 132.478 178.492 114.878 177.164 94.6703C176.796 88.9424 176.428 83.0063 176.556 77.1983C176.764 67.2303 178.796 60.1263 182.956 54.7983C188.844 47.2943 193.612 50.6383 198.284 58.9423C200.967 63.7358 202.812 68.952 203.74 74.3663C205.18 82.5263 204.892 106.206 204.828 110.862H204.812ZM211.532 198.206C209.23 197.461 206.813 197.136 204.396 197.246C207.088 193.443 208.588 188.924 208.704 184.266C208.821 179.608 207.55 175.02 205.052 171.086C206.092 171.086 208.86 171.086 208.54 170.11C207.996 168.286 206.46 164.494 205.228 161.438C204.428 159.422 203.628 157.678 203.628 157.214C203.724 156.366 204.108 152.59 204.108 152.59C205.596 152.83 212.716 152.59 215.132 152.59C213.1 158.99 213.372 158.19 212.94 159.294C212.62 160.142 212.46 160.558 212.668 160.894C212.876 161.23 213.724 161.214 215.868 161.262C215.868 170.494 216.652 181.166 217.052 190.366C214.46 192.356 212.539 195.092 211.548 198.206H211.532ZM216.892 161.246L235.116 161.422C234.536 170.134 234.568 178.875 235.212 187.582C232.465 186.378 229.454 185.905 226.47 186.211C223.487 186.517 220.633 187.59 218.188 189.326C217.852 179.966 217.596 170.35 216.908 161.246H216.892ZM170.652 41.6943C171.756 28.7503 176.012 11.4223 189.852 1.47033C203.164 10.6063 206.796 26.2063 208.556 40.3343C197.212 39.5023 181.244 39.6143 170.668 41.6943H170.652ZM149.052 83.0223C152.78 83.0223 166.652 82.8303 169.852 82.8143C170.14 90.4943 170.433 98.185 170.732 105.886C167.772 113.566 161.132 125.374 154.908 131.166C154.588 132.766 155.004 143.07 155.084 144.926C153.916 145.038 152.748 145.15 151.66 145.31C151.02 123.774 149.052 95.9503 149.052 83.0223Z" fill="#27272A"/>
<path d="M71.596 46.8462C67.26 46.5102 66.156 43.3582 65.196 43.6462C64.94 43.6462 64.828 43.9822 64.764 44.1582C63.404 47.1182 65.132 50.7982 68.156 50.7982C69.0862 50.6986 69.9719 50.3483 70.7186 49.7847C71.4654 49.2211 72.0451 48.4654 72.396 47.5982C72.4489 47.488 72.4653 47.3637 72.4428 47.2435C72.4204 47.1233 72.3602 47.0133 72.2711 46.9296C72.182 46.8458 72.0686 46.7926 71.9472 46.7776C71.8258 46.7626 71.7028 46.7867 71.596 46.8462ZM70.828 47.9502C68.668 50.8302 65.244 49.5502 65.58 45.5982C66.2438 46.3329 67.0531 46.9214 67.9566 47.3263C68.8601 47.7312 69.838 47.9437 70.828 47.9502ZM192.252 116.798C192.226 116.628 192.14 116.472 192.01 116.36C191.879 116.247 191.712 116.185 191.54 116.185C191.368 116.185 191.201 116.247 191.07 116.36C190.94 116.472 190.854 116.628 190.828 116.798C190.828 119.214 191.628 149.022 192.076 152.254C192.076 152.407 192.137 152.554 192.245 152.662C192.353 152.77 192.499 152.83 192.652 152.83C192.805 152.83 192.951 152.77 193.059 152.662C193.167 152.554 193.228 152.407 193.228 152.254C193.948 142.078 192.588 127.342 192.252 116.798ZM65.852 39.3102C66.364 39.3102 66.524 38.7662 66.412 38.2062C66.188 37.0862 65.292 37.0222 65.068 37.6622C64.844 38.3022 65.164 39.3102 65.852 39.3102ZM64.156 32.5422C63.4356 32.6854 62.7864 33.0721 62.3174 33.6373C61.8483 34.2024 61.588 34.9118 61.58 35.6462C61.708 36.4782 62.396 36.4782 62.508 35.8702C62.844 34.1582 63.564 34.2702 64.46 33.7262C64.5891 33.6632 64.6925 33.5576 64.7528 33.4271C64.813 33.2967 64.8264 33.1495 64.7906 33.0103C64.7549 32.8712 64.6723 32.7486 64.5566 32.6633C64.441 32.578 64.2995 32.5353 64.156 32.5422ZM227.58 182.942C227.58 183.246 228.172 183.15 228.236 182.846C228.492 181.758 227.308 169.358 227.5 165.998C227.5 165.566 226.86 165.582 226.828 165.998C226.533 171.657 226.784 177.332 227.58 182.942ZM190.78 195.95C191.1 196.19 191.596 195.806 191.388 195.454C190.78 194.382 189.916 193.55 189.004 191.902C187.604 189.291 186.797 186.403 186.639 183.444C186.482 180.485 186.978 177.528 188.092 174.782C188.268 174.382 187.628 174.142 187.436 174.558C186.076 177.68 185.523 181.094 185.828 184.485C186.132 187.877 187.285 191.137 189.18 193.966C189.608 194.706 190.148 195.375 190.78 195.95Z" fill="#27272A"/>
</svg>
