<svg width="111" height="32" viewBox="0 0 111 32" fill="none" xmlns="http://www.w3.org/2000/svg">
<path d="M15.9997 0C14.7521 0 13.5378 0.142793 12.3728 0.413506C6.44879 1.78611 1.78607 6.44891 0.413498 12.3725C0.142791 13.538 0 14.7523 0 16C0 24.8365 7.16333 32 15.9997 32C17.2473 32 18.4617 31.8572 19.6272 31.5865C25.5506 30.2139 30.2133 25.5517 31.5865 19.6287C31.8572 18.4632 32 17.2483 32 16C32 7.16347 24.8361 0 15.9997 0ZM15.9997 26.0199C14.8187 26.0199 13.6859 25.8159 12.634 25.4404C9.80794 24.4325 7.56791 22.1925 6.56004 19.3664C6.18462 18.3144 5.98055 17.181 5.98055 16C5.98055 10.4662 10.466 5.98007 15.9997 5.98007C17.1807 5.98007 18.3135 6.18414 19.3654 6.55957C22.1915 7.56745 24.4321 9.80753 25.44 12.6336C25.8154 13.6856 26.0194 14.819 26.0194 16C26.0194 21.5338 21.5334 26.0199 15.9997 26.0199Z" fill="url(#paint0_linear_84_244)"/>
<path d="M15.9997 9.54199C12.4335 9.54199 9.54198 12.4336 9.54198 15.9998C9.54198 19.5661 12.4335 22.4577 15.9997 22.4577C19.5659 22.4577 22.4574 19.5661 22.4574 15.9998C22.4574 12.4336 19.5665 9.54199 15.9997 9.54199ZM15.9997 19.9046C13.8435 19.9046 12.095 18.1566 12.095 15.9998C12.095 13.843 13.8435 12.095 15.9997 12.095C18.1558 12.095 19.9044 13.843 19.9044 15.9998C19.9044 18.1566 18.1564 19.9046 15.9997 19.9046Z" fill="#FEFCFE"/>
<path d="M19.3654 6.55964C18.3135 6.18421 17.1807 5.98014 15.9997 5.98014C10.466 5.98014 5.98054 10.4662 5.98054 16.0001C5.98054 17.1811 6.18461 18.3145 6.56003 19.3664C5.28146 18.8833 4.08261 18.1271 3.05333 17.0978C1.70276 15.7472 0.822816 14.1045 0.413483 12.3725C1.78606 6.44898 6.44877 1.78618 12.3728 0.413574C14.1041 0.822915 15.7468 1.70288 17.0974 3.05347C18.1261 4.08217 18.8823 5.28104 19.3654 6.55964Z" fill="url(#paint1_linear_84_244)"/>
<path d="M31.5865 19.6289C30.2133 25.5518 25.5506 30.214 19.6272 31.5866C17.8958 31.1773 16.2531 30.2973 14.9026 28.9467C13.8733 27.9174 13.1171 26.7186 12.634 25.4406C13.6859 25.816 14.8187 26.0201 15.9997 26.0201C21.5334 26.0201 26.0194 21.534 26.0194 16.0001C26.0194 14.8191 25.8154 13.6857 25.4399 12.6338C26.7179 13.1169 27.9168 13.8731 28.946 14.9024C30.2966 16.253 31.1771 17.8969 31.5865 19.6289Z" fill="url(#paint2_linear_84_244)"/>
<path d="M8.08552 27.2634C9.93481 27.2634 11.434 25.7642 11.434 23.9149C11.434 22.0656 9.93481 20.5664 8.08552 20.5664C6.23622 20.5664 4.73708 22.0656 4.73708 23.9149C4.73708 25.7642 6.23622 27.2634 8.08552 27.2634Z" fill="url(#paint3_linear_84_244)"/>
<path d="M23.9436 11.405C25.7929 11.405 27.2921 9.90584 27.2921 8.05651C27.2921 6.20718 25.7929 4.70801 23.9436 4.70801C22.0943 4.70801 20.5952 6.20718 20.5952 8.05651C20.5952 9.90584 22.0943 11.405 23.9436 11.405Z" fill="url(#paint4_linear_84_244)"/>
<path d="M110.76 12.6088V14.5974H104.488V12.6088H110.76ZM106.037 9.99512H108.608V20.2366C108.608 20.5822 108.66 20.8474 108.764 21.032C108.873 21.212 109.015 21.3351 109.19 21.4014C109.365 21.4677 109.559 21.5008 109.772 21.5008C109.933 21.5008 110.08 21.489 110.213 21.4653C110.35 21.4416 110.454 21.4203 110.525 21.4014L110.958 23.4113C110.821 23.4587 110.625 23.5107 110.369 23.5676C110.118 23.6244 109.81 23.6575 109.446 23.667C108.802 23.6859 108.222 23.5889 107.706 23.3758C107.19 23.158 106.78 22.8218 106.477 22.3673C106.179 21.9127 106.032 21.3445 106.037 20.6627V9.99512Z" fill="#D4D4D8"/>
<path d="M100.097 23.5176V12.6085H102.668V23.5176H100.097ZM101.39 11.0602C100.983 11.0602 100.632 10.9253 100.339 10.6554C100.045 10.3808 99.8984 10.0517 99.8984 9.66819C99.8984 9.27993 100.045 8.95086 100.339 8.68097C100.632 8.40635 100.983 8.26904 101.39 8.26904C101.802 8.26904 102.152 8.40635 102.441 8.68097C102.735 8.95086 102.881 9.27993 102.881 9.66819C102.881 10.0517 102.735 10.3808 102.441 10.6554C102.152 10.9253 101.802 11.0602 101.39 11.0602Z" fill="#D4D4D8"/>
<path d="M87.6133 23.5176V8.97217H90.1843V14.4125H90.2908C90.4234 14.1474 90.6104 13.8656 90.8519 13.5673C91.0934 13.2643 91.4201 13.0063 91.832 12.7932C92.244 12.5754 92.7695 12.4665 93.4087 12.4665C94.2515 12.4665 95.0115 12.6819 95.6886 13.1128C96.3704 13.5389 96.9102 14.171 97.3079 15.0091C97.7103 15.8424 97.9116 16.8652 97.9116 18.0773C97.9116 19.2752 97.7151 20.2932 97.3221 21.1313C96.9291 21.9693 96.3941 22.6085 95.717 23.0489C95.0399 23.4892 94.2728 23.7094 93.4158 23.7094C92.7908 23.7094 92.2724 23.6052 91.8604 23.3969C91.4485 23.1886 91.1171 22.9376 90.8661 22.644C90.6199 22.3457 90.4282 22.064 90.2908 21.7989H90.1417V23.5176H87.6133ZM90.1346 18.0631C90.1346 18.7686 90.234 19.3865 90.4329 19.9168C90.6365 20.4471 90.9277 20.8614 91.3065 21.1597C91.69 21.4532 92.154 21.6 92.6985 21.6C93.2667 21.6 93.7425 21.4485 94.1261 21.1455C94.5096 20.8377 94.7984 20.4187 94.9925 19.8884C95.1914 19.3533 95.2908 18.7449 95.2908 18.0631C95.2908 17.386 95.1938 16.7847 94.9996 16.2591C94.8055 15.7335 94.5167 15.3216 94.1332 15.0233C93.7496 14.725 93.2714 14.5759 92.6985 14.5759C92.1493 14.5759 91.6829 14.7203 91.2994 15.0091C90.9158 15.2979 90.6246 15.7028 90.4258 16.2236C90.2317 16.7444 90.1346 17.3576 90.1346 18.0631Z" fill="#D4D4D8"/>
<path d="M79.5699 23.5175V12.6084H82.0628V14.4266H82.1765C82.3753 13.7968 82.7163 13.3115 83.1992 12.9706C83.6869 12.625 84.2432 12.4521 84.8682 12.4521C85.0103 12.4521 85.1689 12.4593 85.3441 12.4735C85.524 12.4829 85.6732 12.4995 85.7915 12.5232V14.8882C85.6826 14.8503 85.5098 14.8172 85.2731 14.7888C85.0411 14.7557 84.8162 14.7391 84.5984 14.7391C84.1296 14.7391 83.7082 14.8409 83.3342 15.0445C82.9648 15.2433 82.6736 15.5203 82.4606 15.8754C82.2475 16.2306 82.141 16.6401 82.141 17.1041V23.5175H79.5699Z" fill="#D4D4D8"/>
<path d="M72.1605 23.7305C71.0952 23.7305 70.1719 23.4961 69.3906 23.0274C68.6094 22.5586 68.0033 21.9029 67.5724 21.0601C67.1463 20.2173 66.9332 19.2324 66.9332 18.1055C66.9332 16.9786 67.1463 15.9914 67.5724 15.1439C68.0033 14.2963 68.6094 13.6382 69.3906 13.1694C70.1719 12.7007 71.0952 12.4663 72.1605 12.4663C73.2258 12.4663 74.1491 12.7007 74.9304 13.1694C75.7116 13.6382 76.3153 14.2963 76.7415 15.1439C77.1723 15.9914 77.3878 16.9786 77.3878 18.1055C77.3878 19.2324 77.1723 20.2173 76.7415 21.0601C76.3153 21.9029 75.7116 22.5586 74.9304 23.0274C74.1491 23.4961 73.2258 23.7305 72.1605 23.7305ZM72.1747 21.6709C72.7524 21.6709 73.2353 21.5122 73.6236 21.195C74.0118 20.873 74.3007 20.4422 74.49 19.9024C74.6842 19.3626 74.7812 18.7613 74.7812 18.0984C74.7812 17.4308 74.6842 16.8271 74.49 16.2873C74.3007 15.7428 74.0118 15.3096 73.6236 14.9876C73.2353 14.6656 72.7524 14.5047 72.1747 14.5047C71.5828 14.5047 71.0904 14.6656 70.6974 14.9876C70.3092 15.3096 70.018 15.7428 69.8239 16.2873C69.6345 16.8271 69.5398 17.4308 69.5398 18.0984C69.5398 18.7613 69.6345 19.3626 69.8239 19.9024C70.018 20.4422 70.3092 20.873 70.6974 21.195C71.0904 21.5122 71.5828 21.6709 72.1747 21.6709Z" fill="#D4D4D8"/>
<path d="M63.185 23.6738C62.7541 23.6738 62.3848 23.5223 62.0771 23.2192C61.7693 22.9162 61.6178 22.5469 61.6225 22.1113C61.6178 21.6851 61.7693 21.3206 62.0771 21.0175C62.3848 20.7145 62.7541 20.563 63.185 20.563C63.6017 20.563 63.9639 20.7145 64.2717 21.0175C64.5842 21.3206 64.7428 21.6851 64.7475 22.1113C64.7428 22.4001 64.667 22.6629 64.5202 22.8996C64.3782 23.1364 64.1888 23.3258 63.9521 23.4678C63.7201 23.6051 63.4644 23.6738 63.185 23.6738Z" fill="#D4D4D8"/>
<path d="M51.9847 17.1254V23.5174H49.4137V12.6084H51.8711V14.462H51.9989C52.2499 13.8513 52.65 13.3659 53.1992 13.0061C53.7532 12.6462 54.4374 12.4663 55.2518 12.4663C56.0046 12.4663 56.6604 12.6273 57.2191 12.9493C57.7825 13.2712 58.2181 13.7376 58.5259 14.3484C58.8384 14.9592 58.9923 15.7002 58.9876 16.5714V23.5174H56.4165V16.9691C56.4165 16.24 56.2271 15.6694 55.8484 15.2575C55.4743 14.8456 54.9558 14.6396 54.293 14.6396C53.8431 14.6396 53.4431 14.739 53.0927 14.9379C52.747 15.132 52.4748 15.4138 52.2759 15.7831C52.0818 16.1524 51.9847 16.5998 51.9847 17.1254Z" fill="#D4D4D8"/>
<path d="M44.1989 23.5176V12.6085H46.7699V23.5176H44.1989ZM45.4915 11.0602C45.0843 11.0602 44.7339 10.9253 44.4403 10.6554C44.1468 10.3808 44 10.0517 44 9.66819C44 9.27993 44.1468 8.95086 44.4403 8.68097C44.7339 8.40635 45.0843 8.26904 45.4915 8.26904C45.9034 8.26904 46.2538 8.40635 46.5426 8.68097C46.8362 8.95086 46.983 9.27993 46.983 9.66819C46.983 10.0517 46.8362 10.3808 46.5426 10.6554C46.2538 10.9253 45.9034 11.0602 45.4915 11.0602Z" fill="#D4D4D8"/>
<defs>
<linearGradient id="paint0_linear_84_244" x1="27.16" y1="5.45411" x2="5.18649" y2="26.2176" gradientUnits="userSpaceOnUse">
<stop stop-color="#F38856"/>
<stop offset="0.23" stop-color="#F0625C"/>
<stop offset="1" stop-color="#5C3DAB"/>
</linearGradient>
<linearGradient id="paint1_linear_84_244" x1="14.9871" y1="2.71255" x2="2.48848" y2="15.1437" gradientUnits="userSpaceOnUse">
<stop stop-color="#F67986"/>
<stop offset="1" stop-color="#8951BA"/>
</linearGradient>
<linearGradient id="paint2_linear_84_244" x1="29.2816" y1="17.0842" x2="16.783" y2="29.5159" gradientUnits="userSpaceOnUse">
<stop stop-color="#F67986"/>
<stop offset="1" stop-color="#8951BA"/>
</linearGradient>
<linearGradient id="paint3_linear_84_244" x1="10.5302" y1="21.6272" x2="5.64014" y2="26.2025" gradientUnits="userSpaceOnUse">
<stop stop-color="#A267B9"/>
<stop offset="1" stop-color="#704BB4"/>
</linearGradient>
<linearGradient id="paint4_linear_84_244" x1="25.979" y1="6.15141" x2="22.6406" y2="9.27555" gradientUnits="userSpaceOnUse">
<stop stop-color="#F7A8A5"/>
<stop offset="0.97" stop-color="#D074C4"/>
<stop offset="1" stop-color="#CF76A9"/>
</linearGradient>
</defs>
</svg>
